<?xml version="1.0" encoding="UTF-8"?>
<svg xmlns="http://www.w3.org/2000/svg" id="Calque_6" data-name="Calque 6" viewBox="0 0 425.2 425.2">
  <defs>
    <style>
      .cls-1 {
        fill: #fff;
      }

      .cls-2 {
        fill: #f4bdba;
      }

      .cls-3 {
        fill: #5a351b;
      }

      .cls-4 {
        fill: #b0ddea;
      }

      .cls-5 {
        stroke-miterlimit: 10;
      }

      .cls-5, .cls-6 {
        fill: none;
        stroke: #1c2943;
        stroke-width: 4px;
      }

      .cls-7 {
        fill: #1c2943;
      }

      .cls-8 {
        fill: #e88686;
      }

      .cls-6 {
        stroke-linejoin: round;
      }

      .cls-9 {
        fill: #432913;
      }
    </style>
  </defs>
  <circle class="cls-4" cx="212.6" cy="212.6" r="205.38"/>
  <g>
    <path class="cls-2" d="m296.64,274.92c.23,6.5-21.45,19.3-38.72,29.85l.32,56.54c-38.93,25.44-87.97,1.13-87.97,1.13l-2.12-55.85c-10.94-8.62-23.19-17.86-31.36-23.96-5.87-4.38-9.44-11.21-9.7-18.56l-3.72-105.02c-3.63-31.46,15.43-67.14,86.52-67.27,71.09-.13,66.93,33.11,82.5,41.57,15.56,8.46,3.89,131.55,4.24,141.56Z"/>
    <path class="cls-8" d="m215.33,181.09s-26.6,67-7.92,63.53c17.44-3.24,23.13-1.84,22.44-15.41-.76-15.17-16.86-5.07-16.86-5.07,0,0-3.02-22.14,2.34-43.06Z"/>
    <path class="cls-7" d="m247.75,276.81c-4.56,5.79-25.69,13.58-36.13,12.73-14-1.15-38.1-3.33-32.57-16.72,3.63-8.77,8.08-4.95,16.07-1.15l3.23,6.74s29.98,5.73,38.18-3.76c3.1-3.58,4.13-6.52,4.2-8.77,5.36-3.14,13.05,3.26,7.02,10.94Z"/>
    <path class="cls-1" d="m240.73,265.87c-.07,2.25-1.1,5.19-4.2,8.77-6.1,7.06-25.88,5.76-35.63,4.63-3.18-.37-5.62-3.01-5.73-6.24l-.05-1.36c4.22,2,9.43,3.99,16.01,4.15,0,0,24.68-5.43,28.34-8.98.39-.39.81-.71,1.26-.96Z"/>
    <line class="cls-5" x1="123.15" y1="161.92" x2="275.62" y2="163.72"/>
    <path class="cls-6" d="m137.93,162.65s-5.14,43.43,8.87,48.81c21.09,8.11,57.99,10.88,56.45-39.19l23.58.15s-13.62,41.85,28.08,42.67c33.19.65,31.4-15.43,31.4-15.43l.84-36,10.89-.12"/>
    <path class="cls-7" d="m261.71,301.25s-20.58,16.54-28.55,21.33c-7.97,4.79-32.85-2.3-32.85-2.3l-32.2-13.68.76,21.48s63.77,16.56,92.84-26.83Z"/>
    <ellipse class="cls-7" cx="173.47" cy="183.29" rx="6.2" ry="7.95"/>
    <ellipse class="cls-7" cx="250.87" cy="183.29" rx="6.2" ry="7.95"/>
    <path class="cls-3" d="m263.97,129.56l-1.34.14c-2.53.27-4.54,2.24-4.86,4.76l-.56,4.36-4.28,22.19-2.49-31.56c-.23-2.87-2.66-5.06-5.54-4.98l-94.35,2.54c-2.78.07-5.43,1.15-7.48,3.03l-12.56,11.54c-2.33,2.14-3.68,5.15-3.72,8.32l-1.03,75.08-17.1-5.21-1.92-10.09-7.38-92.25,34.05-40.57c5.6-4.22,13.12-4.77,19.28-1.41h0s58.94-22.01,72.12-23.06c6.99-.56,31.04,1.33,52.1,3.22,20.45,1.84,36.9,17.7,39.64,38.18l9.28,89.12-3.19,24.95-22.82,17.99-3.53-80.08-25.8-13.64"/>
    <path class="cls-9" d="m200.18,292.21s27.62,1.66,31.86-1.13l-14.59,10.62-17.27-9.49Z"/>
    <path class="cls-3" d="m255.86,246.72c-12.21.43-33.59,8.82-44.7,6.83-11.11-1.99-35.6-12.12-39.03.42-3.42,12.55-3.98,52.63-3.98,52.63l29.71,16.3s33,4.52,40.06-.64c7.05-5.16,25.36-20.89,25.36-20.89,0,0,4.78-55.08-7.43-54.64Zm-3.2,49.32l-24.24,16.64-26.22.93-28.47-14.77s-.09-41.57,7.35-40.87c7.45.68,24.68,5.65,32.68,3.77,7.99-1.88,41.23-12.41,40.72-2.22-.52,10.19-1.82,36.52-1.82,36.52Z"/>
  </g>
</svg>