<?xml version="1.0" encoding="UTF-8"?>
<svg xmlns="http://www.w3.org/2000/svg" id="Calque_6" data-name="Calque 6" viewBox="0 0 425.2 425.2">
  <defs>
    <style>
      .cls-1 {
        fill: #fff;
      }

      .cls-2 {
        opacity: .55;
      }

      .cls-2, .cls-3 {
        fill: #2c190f;
      }

      .cls-4 {
        fill: #f4bdba;
      }

      .cls-5 {
        fill: #b0ddea;
      }

      .cls-6 {
        stroke: #1c2943;
        stroke-width: 4px;
      }

      .cls-6, .cls-7 {
        fill: none;
        stroke-miterlimit: 10;
      }

      .cls-8 {
        fill: #1c2943;
      }

      .cls-7 {
        stroke: #2c190f;
        stroke-width: 3px;
      }

      .cls-9 {
        fill: #e88686;
      }
    </style>
  </defs>
  <circle class="cls-5" cx="212.6" cy="212.6" r="205.38"></circle>
  <g>
    <path class="cls-4" d="m288.31,217.78c-.6,8.5-2.85,37.68-5.1,53.18-.91,6.28-3.95,6.93-6.73,12.64-3.83,7.86-5.07,10.17-12.49,21.79l.63,62.94c-25.95,25.95-94.63,1.45-94.63,1.45l.13-58.92c-9.82-13.05-25.12-27.63-25.64-35.4-1.19-17.6-7.92-46.06-7.61-54.73.29-8.34-12.42-84.07-2.36-88.21,0,0,139.25-16.14,145.53-7.48,21.59,29.79,9,82.56,8.27,92.75Z"></path>
    <path class="cls-9" d="m208.01,190.22s-3.17,40.27-11.41,44.71c-8.24,4.44-1.71,14.25,8.96,15.54,5.13.62,21.79,6.61,22.74-5.73.95-12.34-7.29-10.76-9.51-18.05-2.22-7.29-3.17-46.29-10.78-36.46Z"></path>
    <ellipse class="cls-8" cx="166.81" cy="191.29" rx="7.11" ry="9.78"></ellipse>
    <ellipse class="cls-8" cx="250.31" cy="191.29" rx="7.11" ry="9.78"></ellipse>
    <path class="cls-8" d="m193.32,281.98c8.1-3.43,23.54-8.54,42.56-7.89,1.67.06,1.94.13,3.33-.78.02-.01,1.02-.54,1.49-.64s-.37,1.41-.56,1.8c-2.79,5.72-10.7,21.27-19.09,20.99-7.9-.26-20.99,2.56-29.84-3.85-11.11-8.05-1.71-8.01,2.12-9.63Z"></path>
    <path class="cls-1" d="m192.1,282.54s-.56,2.62,3.58,2.31c4.14-.31,32.93-3.48,35.28-5.41s4.67-5.35,4.67-5.35c0,0-20.95-1.55-43.53,8.46Z"></path>
    <path class="cls-8" d="m170.13,310.86s21.61,19.88,30.53,19.48c5.58-.25,14.38-.19,20.2-.11,3.87.05,7.65-1.06,10.88-3.19l32.26-21.65s-41.65,48.59-93.87,31.11v-25.64Z"></path>
    <path class="cls-7" d="m178.32,278.45s37.75-21.56,72.79-12.49"></path>
    <path class="cls-2" d="m206.49,303.58c1.88.86,6.71,1.92,16.62-1.88.71-.27,1.45.29,1.39,1.05-.22,2.86-1.06,8.48-4.39,8.66,0,0,.59,14.92,9.32,15.81.51.05.72.67.33,1-2.12,1.78-6.85,2.74-12.92,2.01l-14.04.1c-.53,0-.79-.65-.4-1,3.67-3.31,9.09-11.11,8.03-16.92,0,0-6.56-2.38-5.33-8.14.13-.61.81-.94,1.38-.68Z"></path>
    <path class="cls-3" d="m137.46,228.25s-9.99-91.51.77-94.64c8.97-2.61,34.43-4.36,42.67-4.87,1.68-.1,3.35.03,4.98.4,8.22,1.86,35.68,7.57,50.12,4.17,17.1-4.02,43.09-13.99,44.04-8.27.35,2.11,8.78,15.45,10.19,31.89,2.41,28.07-1.86,64.49-1.86,64.49,0,0,22.75-37.8,21.41-55.91-1.34-18.11,24.48-20.46,16.43-49.97-8.05-29.51-9.05-65.06-28.17-67.4-17.15-2.11-93.46,7.13-119.11-2.1-5.56-2-11.74-1.2-16.6,2.16-9.99,6.9-23.47,18.81-20.22,31.13l1.95,6.75s-6.46-2.05-13.43.29c-6.97,2.35-30.44,14.75-32.12,27.83-1.68,13.08-2.01,29.17,3.35,34.88s-7.38,27.76,6.37,42.22,29.22,36.96,29.22,36.96Z"></path>
    <path class="cls-6" d="m200.26,174.53h21.16c.09-.07.17-.15.27-.25,9.77-9.73,22.74-12.28,62.19-6.74"></path>
    <path class="cls-6" d="m140.97,203.71c1.14,3.09,3.63,6.33,8.2,9s10.28,4.03,15.99,4.03h7.37c4.11,0,8.22-.46,12.12-1.51,13.62-3.68,17.67-11.78,17.67-19.55v-12.95h16.6v12.95c0,7.77,4.05,15.87,17.67,19.55,3.9,1.05,8.01,1.51,12.12,1.51h7.37c5.71,0,11.36-1.33,15.99-4.03,4.57-2.67,7.06-5.92,8.2-9"></path>
    <path class="cls-6" d="m222.23,174.53h-21.16c-.09-.07-.17-.15-.27-.25-9.77-9.73-26.02-11.42-62.19-6.74"></path>
  </g>
</svg>
